<svg xmlns="http://www.w3.org/2000/svg" width="32" height="32" viewBox="0 0 32 32"><path d="M32 6.08c-1.18.52-2.45.87-3.77 1.03 1.35-.81 2.4-2.1 2.89-3.64-1.27.75-2.68 1.3-4.17 1.6-1.21-1.27-2.91-2.07-4.8-2.07-3.63 0-6.57 2.94-6.57 6.56 0 .52.06 1.02.17 1.5-5.45-.28-10.29-2.89-13.53-6.86-.56.97-.89 2.1-.89 3.3 0 2.27 1.16 4.28 2.92 5.46-1.08-.04-2.09-.33-2.98-.82v.09c0 3.17 2.27 5.82 5.27 6.43-.54.15-1.12.23-1.72.23-.42 0-.83-.04-1.23-.11.84 2.61 3.25 4.5 6.13 4.55-2.25 1.76-5.08 2.81-8.16 2.81-.53 0-1.05-.04-1.56-.09 2.9 1.87 6.35 2.95 10.06 2.95 12.08 0 18.68-10 18.68-18.68 0-.28-.01-.57-.02-.85 1.29-.92 2.4-2.08 3.28-3.39z"/></svg>